<svg width="234" height="63" viewBox="0 0 234 63" fill="none" xmlns="http://www.w3.org/2000/svg">
<path d="M38.8379 55.878C36.4689 55.878 34.1508 55.1996 32.1152 53.8857L11.1391 40.3712C8.34257 38.5672 6.41676 35.7866 5.71076 32.5315C5.00868 29.2803 5.6127 25.9468 7.41692 23.1544L14.0573 12.8558C15.8615 10.0595 18.6423 8.12997 21.8978 7.42797C25.1493 6.72596 28.4832 7.32992 31.2798 9.13395L52.2558 22.6524C55.0524 24.4565 56.9782 27.241 57.6842 30.4921C58.3863 33.7433 57.7822 37.0769 55.978 39.8731L49.3377 50.1718C47.5335 52.968 44.7526 54.8937 41.4972 55.5996C40.6107 55.7839 39.7243 55.878 38.8379 55.878ZM34.9588 49.4816C38.3005 51.6346 42.7719 50.6699 44.9291 47.3285L51.5694 37.0298C52.6127 35.4101 52.9657 33.4845 52.5578 31.5981C52.1499 29.7156 51.036 28.1038 49.4161 27.0606L28.4361 13.5381C26.8163 12.4949 24.8865 12.1459 23.0039 12.5499C21.1212 12.9577 19.5091 14.0715 18.4658 15.6912L11.8294 25.9938C10.7861 27.6135 10.4331 29.5431 10.841 31.4255C11.2489 33.308 12.3629 34.9199 13.9827 35.9631L34.9588 49.4816Z" fill="#E33E5A"/>
<path d="M38.9203 55.878C38.0378 55.878 37.1474 55.7839 36.2649 55.5917C33.0134 54.8897 30.2286 52.9602 28.4244 50.1639L21.784 39.8653C19.9798 37.069 19.3758 33.7355 20.0779 30.4843C20.78 27.2331 22.7097 24.4486 25.5062 22.6446L46.4823 9.12609C52.2558 5.40429 59.9787 7.07498 63.7009 12.8479L70.3412 23.1466C72.1454 25.9428 72.7495 29.2764 72.0474 32.5276C71.3453 35.7787 69.4156 38.5632 66.619 40.3673L45.643 53.8857C43.6073 55.1996 41.2854 55.878 38.9203 55.878ZM53.2207 12.393C51.8832 12.393 50.53 12.7655 49.3259 13.5421L28.3499 27.0566C26.73 28.0998 25.6161 29.7117 25.2081 31.5942C24.8002 33.4766 25.1532 35.4062 26.1966 37.0259L32.8369 47.3246C34.9902 50.6659 39.4615 51.6346 42.8072 49.4776L63.7832 35.9591C65.4031 34.9159 66.517 33.3041 66.925 31.4216C67.3329 29.5391 66.9799 27.6096 65.9366 25.9899L59.2962 15.6912C57.9156 13.5577 55.5897 12.393 53.2207 12.393Z" fill="#3C2E88"/>
<path d="M31.2807 9.13319L28.4395 13.5403L49.4127 27.0585L52.2539 22.6514L31.2807 9.13319Z" fill="#E33E5A"/>
<path d="M104.806 19.7973H110.352L100.354 44.9204C99.805 46.297 98.4714 47.2029 96.9888 47.2029C95.5415 47.2029 94.2354 46.3401 93.6628 45.0146L82.8139 19.7973H88.4619L96.9221 40.8535L104.806 19.7973Z" fill="#3C2E88"/>
<path d="M115.474 12.9537C114.796 12.3027 114.458 11.4948 114.458 10.5575C114.458 9.59667 114.796 8.78877 115.474 8.1103C116.125 7.45928 116.933 7.122 117.894 7.122C118.804 7.122 119.612 7.45928 120.291 8.13775C120.942 8.81622 121.279 9.6202 121.279 10.5575C121.279 11.4948 120.942 12.3027 120.291 12.9537C119.612 13.6048 118.808 13.942 117.894 13.942C116.933 13.942 116.125 13.6008 115.474 12.9537ZM115.215 19.7973H120.526V47.2029H115.215V19.7973Z" fill="#3C2E88"/>
<path d="M147.335 19.7973H152.881L142.883 44.9204C142.334 46.297 141 47.2029 139.517 47.2029C138.07 47.2029 136.76 46.3401 136.191 45.0146L125.343 19.7973H130.991L139.451 40.8535L147.335 19.7973Z" fill="#3C2E88"/>
<path d="M182.368 35.1277H160.764C161.466 40.2025 165.032 42.7281 171.464 42.7281C174.068 42.7281 176.253 42.285 177.818 41.8183C178.493 41.6104 179.407 41.2457 179.744 41.0888C180.081 40.9319 180.811 40.6221 180.838 40.6221V45.6734C177.716 47.1323 174.382 47.8579 170.817 47.8579C165.922 47.8579 161.862 46.297 159.313 43.6929C156.764 41.0888 155.355 37.6023 155.355 33.6217C155.355 28.3116 157.697 23.7034 161.89 21.0758C164 19.7738 166.369 19.1227 169.024 19.1227C172.904 19.1227 176.132 20.4483 178.708 23.1073C181.258 25.7859 182.536 29.2253 182.536 33.4138C182.525 34.0099 182.474 34.5825 182.368 35.1277ZM160.866 30.5744H177.63C176.9 26.331 173.727 24.1191 169.221 24.1191C164.745 24.1191 161.702 26.331 160.866 30.5744Z" fill="#3C2E88"/>
<path d="M186.192 43.1203L188.718 39.0848C190.385 40.4652 191.946 41.4535 193.378 42.0536C194.809 42.6772 196.425 42.9909 198.194 42.9909C202.073 42.9909 204.493 41.5869 204.493 39.3711C204.623 38.12 203.528 37.2376 202.383 36.665C201.759 36.3277 200.065 35.8571 199.312 35.6767C198.896 35.5708 198.296 35.4414 197.488 35.261C196.656 35.0806 195.978 34.9237 195.484 34.7943C194.962 34.6649 194.338 34.508 193.585 34.3002C192.075 33.8844 191.322 33.5197 190.177 32.9197C189.032 32.3196 188.408 31.6451 187.78 30.7352C187.129 29.8254 186.843 28.7037 186.843 27.3507C186.843 24.8251 187.859 22.821 189.914 21.3386C191.942 19.8561 194.574 19.1267 197.774 19.1267C202.226 19.1267 206.313 20.664 209.098 22.9544L207.015 26.9036C205.27 25.8369 203.736 25.0839 202.406 24.5858C201.081 24.0917 199.649 23.8564 198.112 23.8564C196.366 23.8564 194.935 24.1701 193.817 24.7662C192.699 25.3623 192.122 26.1467 192.122 27.0566C192.122 27.7076 192.358 28.2527 193.009 28.6724C193.632 29.0881 194.025 29.3469 195.119 29.6332C195.664 29.7626 196.084 29.8685 196.37 29.9469C196.656 30.0254 197.151 30.1038 197.802 30.2332C198.453 30.3627 198.896 30.4411 199.104 30.4921C202.359 31.1431 204.674 31.951 206.705 33.2766C208.737 34.6296 209.776 36.6101 209.776 39.1867C209.776 41.8144 208.76 43.8968 206.705 45.4577C204.65 47.0461 201.889 47.8265 198.429 47.8265C193.534 47.8304 189.083 46.1362 186.192 43.1203Z" fill="#3C2E88"/>
<path d="M213.393 19.7973V11.6007H218.652V19.7973H226.826V24.1976H218.652V38.0965C218.652 39.2142 218.652 39.5005 218.782 40.3868C218.888 41.2731 219.096 41.5594 219.59 42.1555C220.213 42.936 221.567 43.2733 223.649 43.2733C225.395 43.2733 227.034 43.0929 228.568 42.7281V47.1794C226.485 47.6226 224.453 47.8539 222.504 47.8539C219.484 47.8539 217.401 47.1519 216.099 45.9519C215.162 45.1204 214.616 44.4694 214.201 43.3242C213.785 42.1791 213.601 41.5555 213.499 40.3554C213.393 39.1044 213.393 38.924 213.393 37.7788V24.1976" fill="#3C2E88"/>
</svg>
